<mxfile host="65bd71144e">
    <diagram id="HnrJ2k9k2Cit4Tft0vqH" name="Page-1">
        <mxGraphModel dx="1975" dy="1495" grid="1" gridSize="10" guides="1" tooltips="1" connect="1" arrows="1" fold="1" page="1" pageScale="1" pageWidth="850" pageHeight="1100" math="0" shadow="0">
            <root>
                <mxCell id="0"/>
                <mxCell id="1" parent="0"/>
                <mxCell id="196" value="" style="rounded=0;whiteSpace=wrap;html=1;fillColor=#f5f5f5;fontColor=#333333;strokeColor=#666666;" vertex="1" parent="1">
                    <mxGeometry x="120" y="40" width="660" height="1280" as="geometry"/>
                </mxCell>
                <mxCell id="39" value="" style="verticalLabelPosition=bottom;shadow=0;dashed=0;align=center;html=1;verticalAlign=top;shape=mxgraph.electrical.logic_gates.logic_gate;operation=and;fillColor=#fff2cc;strokeColor=#d6b656;" vertex="1" parent="1">
                    <mxGeometry x="600" y="1030" width="100" height="60" as="geometry"/>
                </mxCell>
                <mxCell id="40" value="" style="group" vertex="1" connectable="0" parent="1">
                    <mxGeometry x="600" y="280" width="60" height="120" as="geometry"/>
                </mxCell>
                <mxCell id="41" value="" style="shape=trapezoid;perimeter=trapezoidPerimeter;whiteSpace=wrap;html=1;fixedSize=1;rotation=90;fillColor=#ffe6cc;strokeColor=#d79b00;" vertex="1" parent="40">
                    <mxGeometry x="-30" y="40" width="120" height="40" as="geometry"/>
                </mxCell>
                <mxCell id="42" value="" style="shape=waypoint;sketch=0;size=6;pointerEvents=1;points=[];fillColor=#ffe6cc;resizable=0;rotatable=0;perimeter=centerPerimeter;snapToPoint=1;strokeColor=#d79b00;" vertex="1" parent="40">
                    <mxGeometry y="20" width="20" height="20" as="geometry"/>
                </mxCell>
                <mxCell id="43" value="0" style="text;html=1;align=center;verticalAlign=middle;resizable=0;points=[];autosize=1;strokeColor=none;fillColor=none;" vertex="1" parent="40">
                    <mxGeometry x="15" y="15" width="30" height="30" as="geometry"/>
                </mxCell>
                <mxCell id="44" value="1" style="text;html=1;align=center;verticalAlign=middle;resizable=0;points=[];autosize=1;strokeColor=none;fillColor=none;" vertex="1" parent="40">
                    <mxGeometry x="15" y="80" width="30" height="30" as="geometry"/>
                </mxCell>
                <mxCell id="45" value="" style="shape=waypoint;sketch=0;size=6;pointerEvents=1;points=[];fillColor=#ffe6cc;resizable=0;rotatable=0;perimeter=centerPerimeter;snapToPoint=1;strokeColor=#d79b00;" vertex="1" parent="40">
                    <mxGeometry y="85" width="20" height="20" as="geometry"/>
                </mxCell>
                <mxCell id="46" value="" style="shape=waypoint;sketch=0;size=6;pointerEvents=1;points=[];fillColor=#ffe6cc;resizable=0;rotatable=0;perimeter=centerPerimeter;snapToPoint=1;strokeColor=#d79b00;" vertex="1" parent="40">
                    <mxGeometry x="40" y="50" width="20" height="20" as="geometry"/>
                </mxCell>
                <mxCell id="47" value="" style="shape=waypoint;sketch=0;size=6;pointerEvents=1;points=[];fillColor=#ffe6cc;resizable=0;rotatable=0;perimeter=centerPerimeter;snapToPoint=1;strokeColor=#d79b00;" vertex="1" parent="40">
                    <mxGeometry x="20" y="100" width="20" height="20" as="geometry"/>
                </mxCell>
                <mxCell id="48" value="" style="group" vertex="1" connectable="0" parent="1">
                    <mxGeometry x="600" y="480" width="60" height="120" as="geometry"/>
                </mxCell>
                <mxCell id="49" value="" style="shape=trapezoid;perimeter=trapezoidPerimeter;whiteSpace=wrap;html=1;fixedSize=1;rotation=90;fillColor=#ffe6cc;strokeColor=#d79b00;" vertex="1" parent="48">
                    <mxGeometry x="-30" y="40" width="120" height="40" as="geometry"/>
                </mxCell>
                <mxCell id="50" value="" style="shape=waypoint;sketch=0;size=6;pointerEvents=1;points=[];fillColor=#ffe6cc;resizable=0;rotatable=0;perimeter=centerPerimeter;snapToPoint=1;strokeColor=#d79b00;" vertex="1" parent="48">
                    <mxGeometry y="23" width="20" height="20" as="geometry"/>
                </mxCell>
                <mxCell id="51" value="0" style="text;html=1;align=center;verticalAlign=middle;resizable=0;points=[];autosize=1;strokeColor=none;fillColor=none;" vertex="1" parent="48">
                    <mxGeometry x="15" y="18" width="30" height="30" as="geometry"/>
                </mxCell>
                <mxCell id="52" value="1" style="text;html=1;align=center;verticalAlign=middle;resizable=0;points=[];autosize=1;strokeColor=none;fillColor=none;" vertex="1" parent="48">
                    <mxGeometry x="15" y="80" width="30" height="30" as="geometry"/>
                </mxCell>
                <mxCell id="53" value="" style="shape=waypoint;sketch=0;size=6;pointerEvents=1;points=[];fillColor=#ffe6cc;resizable=0;rotatable=0;perimeter=centerPerimeter;snapToPoint=1;strokeColor=#d79b00;" vertex="1" parent="48">
                    <mxGeometry y="85" width="20" height="20" as="geometry"/>
                </mxCell>
                <mxCell id="54" value="" style="shape=waypoint;sketch=0;size=6;pointerEvents=1;points=[];fillColor=#ffe6cc;resizable=0;rotatable=0;perimeter=centerPerimeter;snapToPoint=1;strokeColor=#d79b00;" vertex="1" parent="48">
                    <mxGeometry x="40" y="50" width="20" height="20" as="geometry"/>
                </mxCell>
                <mxCell id="55" value="" style="shape=waypoint;sketch=0;size=6;pointerEvents=1;points=[];fillColor=#ffe6cc;resizable=0;rotatable=0;perimeter=centerPerimeter;snapToPoint=1;strokeColor=#d79b00;" vertex="1" parent="48">
                    <mxGeometry x="20" y="100" width="20" height="20" as="geometry"/>
                </mxCell>
                <mxCell id="56" value="" style="verticalLabelPosition=bottom;shadow=0;dashed=0;align=center;html=1;verticalAlign=top;shape=mxgraph.electrical.logic_gates.buffer2;fillColor=#f8cecc;strokeColor=#b85450;" vertex="1" parent="1">
                    <mxGeometry x="580" y="70" width="100" height="60" as="geometry"/>
                </mxCell>
                <mxCell id="66" value="&lt;font style=&quot;font-size: 16px;&quot;&gt;Y_4&lt;/font&gt;" style="whiteSpace=wrap;html=1;fillColor=#e1d5e7;strokeColor=#9673a6;" vertex="1" parent="1">
                    <mxGeometry x="800" y="80" width="80" height="40" as="geometry"/>
                </mxCell>
                <mxCell id="67" value="" style="endArrow=none;html=1;exitX=1;exitY=0.5;exitDx=0;exitDy=0;entryX=0;entryY=0.5;entryDx=0;entryDy=0;" edge="1" parent="1" source="56" target="66">
                    <mxGeometry width="50" height="50" relative="1" as="geometry">
                        <mxPoint x="790" y="340" as="sourcePoint"/>
                        <mxPoint x="840" y="290" as="targetPoint"/>
                    </mxGeometry>
                </mxCell>
                <mxCell id="68" value="&lt;font style=&quot;font-size: 16px;&quot;&gt;Y_3&lt;/font&gt;" style="whiteSpace=wrap;html=1;fillColor=#e1d5e7;strokeColor=#9673a6;" vertex="1" parent="1">
                    <mxGeometry x="800" y="320" width="80" height="40" as="geometry"/>
                </mxCell>
                <mxCell id="69" value="" style="endArrow=none;html=1;exitX=0.75;exitY=0.542;exitDx=0;exitDy=0;entryX=0;entryY=0.5;entryDx=0;entryDy=0;exitPerimeter=0;" edge="1" parent="1" source="46" target="68">
                    <mxGeometry width="50" height="50" relative="1" as="geometry">
                        <mxPoint x="690" y="180" as="sourcePoint"/>
                        <mxPoint x="810" y="180" as="targetPoint"/>
                    </mxGeometry>
                </mxCell>
                <mxCell id="70" value="&lt;font style=&quot;font-size: 16px;&quot;&gt;Y_2&lt;/font&gt;" style="whiteSpace=wrap;html=1;fillColor=#e1d5e7;strokeColor=#9673a6;" vertex="1" parent="1">
                    <mxGeometry x="800" y="520" width="80" height="40" as="geometry"/>
                </mxCell>
                <mxCell id="71" value="" style="endArrow=none;html=1;exitX=0.667;exitY=0.775;exitDx=0;exitDy=0;entryX=0;entryY=0.5;entryDx=0;entryDy=0;exitPerimeter=0;" edge="1" parent="1" source="54" target="70">
                    <mxGeometry width="50" height="50" relative="1" as="geometry">
                        <mxPoint x="660" y="293" as="sourcePoint"/>
                        <mxPoint x="810" y="293" as="targetPoint"/>
                    </mxGeometry>
                </mxCell>
                <mxCell id="72" value="&lt;font style=&quot;font-size: 16px;&quot;&gt;Zero_Flag&lt;/font&gt;" style="whiteSpace=wrap;html=1;fillColor=#e1d5e7;strokeColor=#9673a6;" vertex="1" parent="1">
                    <mxGeometry x="800" y="1040" width="80" height="40" as="geometry"/>
                </mxCell>
                <mxCell id="73" value="" style="endArrow=none;html=1;exitX=1;exitY=0.5;exitDx=0;exitDy=0;entryX=0;entryY=0.5;entryDx=0;entryDy=0;exitPerimeter=0;" edge="1" parent="1" source="39" target="72">
                    <mxGeometry width="50" height="50" relative="1" as="geometry">
                        <mxPoint x="660" y="927" as="sourcePoint"/>
                        <mxPoint x="810" y="927" as="targetPoint"/>
                    </mxGeometry>
                </mxCell>
                <mxCell id="140" value="" style="group" vertex="1" connectable="0" parent="1">
                    <mxGeometry y="640" width="290" height="640" as="geometry"/>
                </mxCell>
                <mxCell id="31" value="&lt;font style=&quot;font-size: 16px;&quot;&gt;X_11&lt;/font&gt;" style="whiteSpace=wrap;html=1;fillColor=#dae8fc;strokeColor=#6c8ebf;" vertex="1" parent="140">
                    <mxGeometry y="160" width="80" height="40" as="geometry"/>
                </mxCell>
                <mxCell id="32" value="&lt;font style=&quot;font-size: 16px;&quot;&gt;X_10&lt;/font&gt;" style="whiteSpace=wrap;html=1;fillColor=#dae8fc;strokeColor=#6c8ebf;" vertex="1" parent="140">
                    <mxGeometry y="200" width="80" height="40" as="geometry"/>
                </mxCell>
                <mxCell id="33" value="&lt;font style=&quot;font-size: 16px;&quot;&gt;X_9&lt;/font&gt;" style="whiteSpace=wrap;html=1;fillColor=#dae8fc;strokeColor=#6c8ebf;" vertex="1" parent="140">
                    <mxGeometry y="240" width="80" height="40" as="geometry"/>
                </mxCell>
                <mxCell id="34" value="&lt;font style=&quot;font-size: 16px;&quot;&gt;X_8&lt;/font&gt;" style="whiteSpace=wrap;html=1;fillColor=#dae8fc;strokeColor=#6c8ebf;" vertex="1" parent="140">
                    <mxGeometry y="280" width="80" height="40" as="geometry"/>
                </mxCell>
                <mxCell id="35" value="" style="edgeStyle=none;orthogonalLoop=1;jettySize=auto;html=1;exitX=1;exitY=0.5;exitDx=0;exitDy=0;entryX=0.15;entryY=0.64;entryDx=0;entryDy=0;entryPerimeter=0;" edge="1" parent="140">
                    <mxGeometry width="100" relative="1" as="geometry">
                        <mxPoint x="80" y="299.64" as="sourcePoint"/>
                        <mxPoint x="160" y="299.64" as="targetPoint"/>
                        <Array as="points"/>
                    </mxGeometry>
                </mxCell>
                <mxCell id="36" value="" style="edgeStyle=none;orthogonalLoop=1;jettySize=auto;html=1;exitX=1;exitY=0.5;exitDx=0;exitDy=0;entryX=0.15;entryY=0.64;entryDx=0;entryDy=0;entryPerimeter=0;" edge="1" parent="140">
                    <mxGeometry width="100" relative="1" as="geometry">
                        <mxPoint x="80" y="259.88" as="sourcePoint"/>
                        <mxPoint x="160" y="259.88" as="targetPoint"/>
                        <Array as="points"/>
                    </mxGeometry>
                </mxCell>
                <mxCell id="37" value="" style="edgeStyle=none;orthogonalLoop=1;jettySize=auto;html=1;exitX=1;exitY=0.5;exitDx=0;exitDy=0;entryX=0.15;entryY=0.64;entryDx=0;entryDy=0;entryPerimeter=0;" edge="1" parent="140">
                    <mxGeometry width="100" relative="1" as="geometry">
                        <mxPoint x="80" y="219.64" as="sourcePoint"/>
                        <mxPoint x="160" y="219.64" as="targetPoint"/>
                        <Array as="points"/>
                    </mxGeometry>
                </mxCell>
                <mxCell id="38" value="" style="edgeStyle=none;orthogonalLoop=1;jettySize=auto;html=1;exitX=1;exitY=0.5;exitDx=0;exitDy=0;entryX=0.15;entryY=0.64;entryDx=0;entryDy=0;entryPerimeter=0;" edge="1" parent="140">
                    <mxGeometry width="100" relative="1" as="geometry">
                        <mxPoint x="80" y="179.88" as="sourcePoint"/>
                        <mxPoint x="160" y="179.88" as="targetPoint"/>
                        <Array as="points"/>
                    </mxGeometry>
                </mxCell>
                <mxCell id="88" value="" style="shape=waypoint;sketch=0;size=6;pointerEvents=1;points=[];fillColor=#fff2cc;resizable=0;rotatable=0;perimeter=centerPerimeter;snapToPoint=1;strokeColor=#d6b656;container=0;" vertex="1" parent="140">
                    <mxGeometry x="150" y="170" width="20" height="20" as="geometry"/>
                </mxCell>
                <mxCell id="89" value="" style="shape=waypoint;sketch=0;size=6;pointerEvents=1;points=[];fillColor=#fff2cc;resizable=0;rotatable=0;perimeter=centerPerimeter;snapToPoint=1;strokeColor=#d6b656;container=0;" vertex="1" parent="140">
                    <mxGeometry x="150" y="210" width="20" height="20" as="geometry"/>
                </mxCell>
                <mxCell id="90" value="" style="shape=waypoint;sketch=0;size=6;pointerEvents=1;points=[];fillColor=#fff2cc;resizable=0;rotatable=0;perimeter=centerPerimeter;snapToPoint=1;strokeColor=#d6b656;container=0;" vertex="1" parent="140">
                    <mxGeometry x="150" y="250" width="20" height="20" as="geometry"/>
                </mxCell>
                <mxCell id="91" value="" style="shape=waypoint;sketch=0;size=6;pointerEvents=1;points=[];fillColor=#fff2cc;resizable=0;rotatable=0;perimeter=centerPerimeter;snapToPoint=1;strokeColor=#d6b656;container=0;" vertex="1" parent="140">
                    <mxGeometry x="150" y="290" width="20" height="20" as="geometry"/>
                </mxCell>
                <mxCell id="23" value="&lt;font style=&quot;font-size: 20px;&quot;&gt;LOPD 16-bit&lt;/font&gt;" style="whiteSpace=wrap;html=1;fillColor=#ffe6cc;strokeColor=#d79b00;container=0;" vertex="1" parent="140">
                    <mxGeometry x="160" width="120" height="640" as="geometry"/>
                </mxCell>
                <mxCell id="24" value="" style="shape=waypoint;sketch=0;size=6;pointerEvents=1;points=[];fillColor=#fff2cc;resizable=0;rotatable=0;perimeter=centerPerimeter;snapToPoint=1;strokeColor=#d6b656;container=0;" vertex="1" parent="140">
                    <mxGeometry x="270" y="10" width="20" height="20" as="geometry"/>
                </mxCell>
                <mxCell id="25" value="" style="shape=waypoint;sketch=0;size=6;pointerEvents=1;points=[];fillColor=#fff2cc;resizable=0;rotatable=0;perimeter=centerPerimeter;snapToPoint=1;strokeColor=#d6b656;container=0;" vertex="1" parent="140">
                    <mxGeometry x="270" y="50" width="20" height="20" as="geometry"/>
                </mxCell>
                <mxCell id="26" value="" style="shape=waypoint;sketch=0;size=6;pointerEvents=1;points=[];fillColor=#fff2cc;resizable=0;rotatable=0;perimeter=centerPerimeter;snapToPoint=1;strokeColor=#d6b656;container=0;" vertex="1" parent="140">
                    <mxGeometry x="270" y="90" width="20" height="20" as="geometry"/>
                </mxCell>
                <mxCell id="27" value="" style="shape=waypoint;sketch=0;size=6;pointerEvents=1;points=[];fillColor=#fff2cc;resizable=0;rotatable=0;perimeter=centerPerimeter;snapToPoint=1;strokeColor=#d6b656;container=0;" vertex="1" parent="140">
                    <mxGeometry x="270" y="610" width="20" height="20" as="geometry"/>
                </mxCell>
                <mxCell id="28" value="" style="shape=waypoint;sketch=0;size=6;pointerEvents=1;points=[];fillColor=#fff2cc;resizable=0;rotatable=0;perimeter=centerPerimeter;snapToPoint=1;strokeColor=#d6b656;container=0;" vertex="1" parent="140">
                    <mxGeometry x="270" y="130" width="20" height="20" as="geometry"/>
                </mxCell>
                <mxCell id="104" value="&lt;font style=&quot;font-size: 16px;&quot;&gt;X_15&lt;/font&gt;" style="whiteSpace=wrap;html=1;fillColor=#dae8fc;strokeColor=#6c8ebf;" vertex="1" parent="140">
                    <mxGeometry width="80" height="40" as="geometry"/>
                </mxCell>
                <mxCell id="105" value="&lt;font style=&quot;font-size: 16px;&quot;&gt;X_14&lt;/font&gt;" style="whiteSpace=wrap;html=1;fillColor=#dae8fc;strokeColor=#6c8ebf;" vertex="1" parent="140">
                    <mxGeometry y="40" width="80" height="40" as="geometry"/>
                </mxCell>
                <mxCell id="106" value="&lt;font style=&quot;font-size: 16px;&quot;&gt;X_13&lt;/font&gt;" style="whiteSpace=wrap;html=1;fillColor=#dae8fc;strokeColor=#6c8ebf;" vertex="1" parent="140">
                    <mxGeometry y="80" width="80" height="40" as="geometry"/>
                </mxCell>
                <mxCell id="107" value="&lt;font style=&quot;font-size: 16px;&quot;&gt;X_12&lt;/font&gt;" style="whiteSpace=wrap;html=1;fillColor=#dae8fc;strokeColor=#6c8ebf;" vertex="1" parent="140">
                    <mxGeometry y="120" width="80" height="40" as="geometry"/>
                </mxCell>
                <mxCell id="108" value="" style="edgeStyle=none;orthogonalLoop=1;jettySize=auto;html=1;exitX=1;exitY=0.5;exitDx=0;exitDy=0;entryX=0.15;entryY=0.64;entryDx=0;entryDy=0;entryPerimeter=0;" edge="1" parent="140">
                    <mxGeometry width="100" relative="1" as="geometry">
                        <mxPoint x="80" y="139.64" as="sourcePoint"/>
                        <mxPoint x="160" y="139.64" as="targetPoint"/>
                        <Array as="points"/>
                    </mxGeometry>
                </mxCell>
                <mxCell id="109" value="" style="edgeStyle=none;orthogonalLoop=1;jettySize=auto;html=1;exitX=1;exitY=0.5;exitDx=0;exitDy=0;entryX=0.15;entryY=0.64;entryDx=0;entryDy=0;entryPerimeter=0;" edge="1" parent="140">
                    <mxGeometry width="100" relative="1" as="geometry">
                        <mxPoint x="80" y="99.88" as="sourcePoint"/>
                        <mxPoint x="160" y="99.88" as="targetPoint"/>
                        <Array as="points"/>
                    </mxGeometry>
                </mxCell>
                <mxCell id="110" value="" style="edgeStyle=none;orthogonalLoop=1;jettySize=auto;html=1;exitX=1;exitY=0.5;exitDx=0;exitDy=0;entryX=0.15;entryY=0.64;entryDx=0;entryDy=0;entryPerimeter=0;" edge="1" parent="140">
                    <mxGeometry width="100" relative="1" as="geometry">
                        <mxPoint x="80" y="59.639999999999986" as="sourcePoint"/>
                        <mxPoint x="160" y="59.639999999999986" as="targetPoint"/>
                        <Array as="points"/>
                    </mxGeometry>
                </mxCell>
                <mxCell id="111" value="" style="edgeStyle=none;orthogonalLoop=1;jettySize=auto;html=1;exitX=1;exitY=0.5;exitDx=0;exitDy=0;entryX=0.15;entryY=0.64;entryDx=0;entryDy=0;entryPerimeter=0;" edge="1" parent="140">
                    <mxGeometry width="100" relative="1" as="geometry">
                        <mxPoint x="80" y="19.879999999999995" as="sourcePoint"/>
                        <mxPoint x="160" y="19.879999999999995" as="targetPoint"/>
                        <Array as="points"/>
                    </mxGeometry>
                </mxCell>
                <mxCell id="112" value="" style="shape=waypoint;sketch=0;size=6;pointerEvents=1;points=[];fillColor=#fff2cc;resizable=0;rotatable=0;perimeter=centerPerimeter;snapToPoint=1;strokeColor=#d6b656;container=0;" vertex="1" parent="140">
                    <mxGeometry x="150" y="10" width="20" height="20" as="geometry"/>
                </mxCell>
                <mxCell id="113" value="" style="shape=waypoint;sketch=0;size=6;pointerEvents=1;points=[];fillColor=#fff2cc;resizable=0;rotatable=0;perimeter=centerPerimeter;snapToPoint=1;strokeColor=#d6b656;container=0;" vertex="1" parent="140">
                    <mxGeometry x="150" y="50" width="20" height="20" as="geometry"/>
                </mxCell>
                <mxCell id="114" value="" style="shape=waypoint;sketch=0;size=6;pointerEvents=1;points=[];fillColor=#fff2cc;resizable=0;rotatable=0;perimeter=centerPerimeter;snapToPoint=1;strokeColor=#d6b656;container=0;" vertex="1" parent="140">
                    <mxGeometry x="150" y="90" width="20" height="20" as="geometry"/>
                </mxCell>
                <mxCell id="141" style="edgeStyle=none;html=1;" edge="1" parent="140" source="115" target="23">
                    <mxGeometry relative="1" as="geometry"/>
                </mxCell>
                <mxCell id="115" value="" style="shape=waypoint;sketch=0;size=6;pointerEvents=1;points=[];fillColor=#fff2cc;resizable=0;rotatable=0;perimeter=centerPerimeter;snapToPoint=1;strokeColor=#d6b656;container=0;" vertex="1" parent="140">
                    <mxGeometry x="150" y="130" width="20" height="20" as="geometry"/>
                </mxCell>
                <mxCell id="116" value="&lt;font style=&quot;font-size: 16px;&quot;&gt;X_3&lt;/font&gt;" style="whiteSpace=wrap;html=1;fillColor=#dae8fc;strokeColor=#6c8ebf;" vertex="1" parent="140">
                    <mxGeometry y="480" width="80" height="40" as="geometry"/>
                </mxCell>
                <mxCell id="117" value="&lt;font style=&quot;font-size: 16px;&quot;&gt;X_2&lt;/font&gt;" style="whiteSpace=wrap;html=1;fillColor=#dae8fc;strokeColor=#6c8ebf;" vertex="1" parent="140">
                    <mxGeometry y="520" width="80" height="40" as="geometry"/>
                </mxCell>
                <mxCell id="118" value="&lt;font style=&quot;font-size: 16px;&quot;&gt;X_1&lt;/font&gt;" style="whiteSpace=wrap;html=1;fillColor=#dae8fc;strokeColor=#6c8ebf;" vertex="1" parent="140">
                    <mxGeometry y="560" width="80" height="40" as="geometry"/>
                </mxCell>
                <mxCell id="119" value="&lt;font style=&quot;font-size: 16px;&quot;&gt;X_0&lt;/font&gt;" style="whiteSpace=wrap;html=1;fillColor=#dae8fc;strokeColor=#6c8ebf;" vertex="1" parent="140">
                    <mxGeometry y="600" width="80" height="40" as="geometry"/>
                </mxCell>
                <mxCell id="120" value="" style="edgeStyle=none;orthogonalLoop=1;jettySize=auto;html=1;exitX=1;exitY=0.5;exitDx=0;exitDy=0;entryX=0.15;entryY=0.64;entryDx=0;entryDy=0;entryPerimeter=0;" edge="1" parent="140">
                    <mxGeometry width="100" relative="1" as="geometry">
                        <mxPoint x="80" y="619.6399999999999" as="sourcePoint"/>
                        <mxPoint x="160" y="619.6399999999999" as="targetPoint"/>
                        <Array as="points"/>
                    </mxGeometry>
                </mxCell>
                <mxCell id="121" value="" style="edgeStyle=none;orthogonalLoop=1;jettySize=auto;html=1;exitX=1;exitY=0.5;exitDx=0;exitDy=0;entryX=0.15;entryY=0.64;entryDx=0;entryDy=0;entryPerimeter=0;" edge="1" parent="140">
                    <mxGeometry width="100" relative="1" as="geometry">
                        <mxPoint x="80" y="579.8800000000001" as="sourcePoint"/>
                        <mxPoint x="160" y="579.8800000000001" as="targetPoint"/>
                        <Array as="points"/>
                    </mxGeometry>
                </mxCell>
                <mxCell id="122" value="" style="edgeStyle=none;orthogonalLoop=1;jettySize=auto;html=1;exitX=1;exitY=0.5;exitDx=0;exitDy=0;entryX=0.15;entryY=0.64;entryDx=0;entryDy=0;entryPerimeter=0;" edge="1" parent="140">
                    <mxGeometry width="100" relative="1" as="geometry">
                        <mxPoint x="80" y="539.6399999999999" as="sourcePoint"/>
                        <mxPoint x="160" y="539.6399999999999" as="targetPoint"/>
                        <Array as="points"/>
                    </mxGeometry>
                </mxCell>
                <mxCell id="123" value="" style="edgeStyle=none;orthogonalLoop=1;jettySize=auto;html=1;exitX=1;exitY=0.5;exitDx=0;exitDy=0;entryX=0.15;entryY=0.64;entryDx=0;entryDy=0;entryPerimeter=0;" edge="1" parent="140">
                    <mxGeometry width="100" relative="1" as="geometry">
                        <mxPoint x="80" y="499.8800000000001" as="sourcePoint"/>
                        <mxPoint x="160" y="499.8800000000001" as="targetPoint"/>
                        <Array as="points"/>
                    </mxGeometry>
                </mxCell>
                <mxCell id="124" value="" style="shape=waypoint;sketch=0;size=6;pointerEvents=1;points=[];fillColor=#fff2cc;resizable=0;rotatable=0;perimeter=centerPerimeter;snapToPoint=1;strokeColor=#d6b656;container=0;" vertex="1" parent="140">
                    <mxGeometry x="150" y="490" width="20" height="20" as="geometry"/>
                </mxCell>
                <mxCell id="125" value="" style="shape=waypoint;sketch=0;size=6;pointerEvents=1;points=[];fillColor=#fff2cc;resizable=0;rotatable=0;perimeter=centerPerimeter;snapToPoint=1;strokeColor=#d6b656;container=0;" vertex="1" parent="140">
                    <mxGeometry x="150" y="530" width="20" height="20" as="geometry"/>
                </mxCell>
                <mxCell id="126" value="" style="shape=waypoint;sketch=0;size=6;pointerEvents=1;points=[];fillColor=#fff2cc;resizable=0;rotatable=0;perimeter=centerPerimeter;snapToPoint=1;strokeColor=#d6b656;container=0;" vertex="1" parent="140">
                    <mxGeometry x="150" y="570" width="20" height="20" as="geometry"/>
                </mxCell>
                <mxCell id="127" value="" style="shape=waypoint;sketch=0;size=6;pointerEvents=1;points=[];fillColor=#fff2cc;resizable=0;rotatable=0;perimeter=centerPerimeter;snapToPoint=1;strokeColor=#d6b656;container=0;" vertex="1" parent="140">
                    <mxGeometry x="150" y="610" width="20" height="20" as="geometry"/>
                </mxCell>
                <mxCell id="128" value="&lt;font style=&quot;font-size: 16px;&quot;&gt;X_7&lt;/font&gt;" style="whiteSpace=wrap;html=1;fillColor=#dae8fc;strokeColor=#6c8ebf;" vertex="1" parent="140">
                    <mxGeometry y="320" width="80" height="40" as="geometry"/>
                </mxCell>
                <mxCell id="129" value="&lt;font style=&quot;font-size: 16px;&quot;&gt;X_6&lt;/font&gt;" style="whiteSpace=wrap;html=1;fillColor=#dae8fc;strokeColor=#6c8ebf;" vertex="1" parent="140">
                    <mxGeometry y="360" width="80" height="40" as="geometry"/>
                </mxCell>
                <mxCell id="130" value="&lt;font style=&quot;font-size: 16px;&quot;&gt;X_5&lt;/font&gt;" style="whiteSpace=wrap;html=1;fillColor=#dae8fc;strokeColor=#6c8ebf;" vertex="1" parent="140">
                    <mxGeometry y="400" width="80" height="40" as="geometry"/>
                </mxCell>
                <mxCell id="131" value="&lt;font style=&quot;font-size: 16px;&quot;&gt;X_4&lt;/font&gt;" style="whiteSpace=wrap;html=1;fillColor=#dae8fc;strokeColor=#6c8ebf;" vertex="1" parent="140">
                    <mxGeometry y="440" width="80" height="40" as="geometry"/>
                </mxCell>
                <mxCell id="132" value="" style="edgeStyle=none;orthogonalLoop=1;jettySize=auto;html=1;exitX=1;exitY=0.5;exitDx=0;exitDy=0;entryX=0.15;entryY=0.64;entryDx=0;entryDy=0;entryPerimeter=0;" edge="1" parent="140">
                    <mxGeometry width="100" relative="1" as="geometry">
                        <mxPoint x="80" y="459.6399999999999" as="sourcePoint"/>
                        <mxPoint x="160" y="459.6399999999999" as="targetPoint"/>
                        <Array as="points"/>
                    </mxGeometry>
                </mxCell>
                <mxCell id="133" value="" style="edgeStyle=none;orthogonalLoop=1;jettySize=auto;html=1;exitX=1;exitY=0.5;exitDx=0;exitDy=0;entryX=0.15;entryY=0.64;entryDx=0;entryDy=0;entryPerimeter=0;" edge="1" parent="140">
                    <mxGeometry width="100" relative="1" as="geometry">
                        <mxPoint x="80" y="419.8800000000001" as="sourcePoint"/>
                        <mxPoint x="160" y="419.8800000000001" as="targetPoint"/>
                        <Array as="points"/>
                    </mxGeometry>
                </mxCell>
                <mxCell id="134" value="" style="edgeStyle=none;orthogonalLoop=1;jettySize=auto;html=1;exitX=1;exitY=0.5;exitDx=0;exitDy=0;entryX=0.15;entryY=0.64;entryDx=0;entryDy=0;entryPerimeter=0;" edge="1" parent="140">
                    <mxGeometry width="100" relative="1" as="geometry">
                        <mxPoint x="80" y="379.6399999999999" as="sourcePoint"/>
                        <mxPoint x="160" y="379.6399999999999" as="targetPoint"/>
                        <Array as="points"/>
                    </mxGeometry>
                </mxCell>
                <mxCell id="135" value="" style="edgeStyle=none;orthogonalLoop=1;jettySize=auto;html=1;exitX=1;exitY=0.5;exitDx=0;exitDy=0;entryX=0.15;entryY=0.64;entryDx=0;entryDy=0;entryPerimeter=0;" edge="1" parent="140">
                    <mxGeometry width="100" relative="1" as="geometry">
                        <mxPoint x="80" y="339.88" as="sourcePoint"/>
                        <mxPoint x="160" y="339.88" as="targetPoint"/>
                        <Array as="points"/>
                    </mxGeometry>
                </mxCell>
                <mxCell id="136" value="" style="shape=waypoint;sketch=0;size=6;pointerEvents=1;points=[];fillColor=#fff2cc;resizable=0;rotatable=0;perimeter=centerPerimeter;snapToPoint=1;strokeColor=#d6b656;container=0;" vertex="1" parent="140">
                    <mxGeometry x="150" y="330" width="20" height="20" as="geometry"/>
                </mxCell>
                <mxCell id="137" value="" style="shape=waypoint;sketch=0;size=6;pointerEvents=1;points=[];fillColor=#fff2cc;resizable=0;rotatable=0;perimeter=centerPerimeter;snapToPoint=1;strokeColor=#d6b656;container=0;" vertex="1" parent="140">
                    <mxGeometry x="150" y="370" width="20" height="20" as="geometry"/>
                </mxCell>
                <mxCell id="138" value="" style="shape=waypoint;sketch=0;size=6;pointerEvents=1;points=[];fillColor=#fff2cc;resizable=0;rotatable=0;perimeter=centerPerimeter;snapToPoint=1;strokeColor=#d6b656;container=0;" vertex="1" parent="140">
                    <mxGeometry x="150" y="410" width="20" height="20" as="geometry"/>
                </mxCell>
                <mxCell id="139" value="" style="shape=waypoint;sketch=0;size=6;pointerEvents=1;points=[];fillColor=#fff2cc;resizable=0;rotatable=0;perimeter=centerPerimeter;snapToPoint=1;strokeColor=#d6b656;container=0;" vertex="1" parent="140">
                    <mxGeometry x="150" y="450" width="20" height="20" as="geometry"/>
                </mxCell>
                <mxCell id="148" value="" style="group" vertex="1" connectable="0" parent="1">
                    <mxGeometry y="200" width="290" height="327" as="geometry"/>
                </mxCell>
                <mxCell id="5" value="&lt;font style=&quot;font-size: 20px;&quot;&gt;LOPD 8-bit&lt;/font&gt;" style="whiteSpace=wrap;html=1;fillColor=#ffe6cc;strokeColor=#d79b00;container=0;" vertex="1" parent="148">
                    <mxGeometry x="160" y="7" width="120" height="320" as="geometry"/>
                </mxCell>
                <mxCell id="13" value="&lt;font style=&quot;font-size: 16px;&quot;&gt;X_23&lt;/font&gt;" style="whiteSpace=wrap;html=1;fillColor=#dae8fc;strokeColor=#6c8ebf;" vertex="1" parent="148">
                    <mxGeometry width="80" height="40" as="geometry"/>
                </mxCell>
                <mxCell id="14" value="&lt;font style=&quot;font-size: 16px;&quot;&gt;X_22&lt;/font&gt;" style="whiteSpace=wrap;html=1;fillColor=#dae8fc;strokeColor=#6c8ebf;" vertex="1" parent="148">
                    <mxGeometry y="40" width="80" height="40" as="geometry"/>
                </mxCell>
                <mxCell id="15" value="&lt;font style=&quot;font-size: 16px;&quot;&gt;X_21&lt;/font&gt;" style="whiteSpace=wrap;html=1;fillColor=#dae8fc;strokeColor=#6c8ebf;" vertex="1" parent="148">
                    <mxGeometry y="80" width="80" height="40" as="geometry"/>
                </mxCell>
                <mxCell id="16" value="&lt;font style=&quot;font-size: 16px;&quot;&gt;X_20&lt;/font&gt;" style="whiteSpace=wrap;html=1;fillColor=#dae8fc;strokeColor=#6c8ebf;" vertex="1" parent="148">
                    <mxGeometry y="120" width="80" height="40" as="geometry"/>
                </mxCell>
                <mxCell id="92" value="&lt;font style=&quot;font-size: 16px;&quot;&gt;X_19&lt;/font&gt;" style="whiteSpace=wrap;html=1;fillColor=#dae8fc;strokeColor=#6c8ebf;" vertex="1" parent="148">
                    <mxGeometry y="160" width="80" height="40" as="geometry"/>
                </mxCell>
                <mxCell id="93" value="&lt;font style=&quot;font-size: 16px;&quot;&gt;X_18&lt;/font&gt;" style="whiteSpace=wrap;html=1;fillColor=#dae8fc;strokeColor=#6c8ebf;" vertex="1" parent="148">
                    <mxGeometry y="200" width="80" height="40" as="geometry"/>
                </mxCell>
                <mxCell id="94" value="&lt;font style=&quot;font-size: 16px;&quot;&gt;X_17&lt;/font&gt;" style="whiteSpace=wrap;html=1;fillColor=#dae8fc;strokeColor=#6c8ebf;" vertex="1" parent="148">
                    <mxGeometry y="240" width="80" height="40" as="geometry"/>
                </mxCell>
                <mxCell id="95" value="&lt;font style=&quot;font-size: 16px;&quot;&gt;X_16&lt;/font&gt;" style="whiteSpace=wrap;html=1;fillColor=#dae8fc;strokeColor=#6c8ebf;" vertex="1" parent="148">
                    <mxGeometry y="280" width="80" height="40" as="geometry"/>
                </mxCell>
                <mxCell id="10" value="" style="shape=waypoint;sketch=0;size=6;pointerEvents=1;points=[];fillColor=#fff2cc;resizable=0;rotatable=0;perimeter=centerPerimeter;snapToPoint=1;strokeColor=#d6b656;container=0;" vertex="1" parent="148">
                    <mxGeometry x="270" y="10" width="20" height="20" as="geometry"/>
                </mxCell>
                <mxCell id="11" value="" style="shape=waypoint;sketch=0;size=6;pointerEvents=1;points=[];fillColor=#fff2cc;resizable=0;rotatable=0;perimeter=centerPerimeter;snapToPoint=1;strokeColor=#d6b656;container=0;" vertex="1" parent="148">
                    <mxGeometry x="270" y="50" width="20" height="20" as="geometry"/>
                </mxCell>
                <mxCell id="12" value="" style="shape=waypoint;sketch=0;size=6;pointerEvents=1;points=[];fillColor=#fff2cc;resizable=0;rotatable=0;perimeter=centerPerimeter;snapToPoint=1;strokeColor=#d6b656;container=0;" vertex="1" parent="148">
                    <mxGeometry x="270" y="290" width="20" height="20" as="geometry"/>
                </mxCell>
                <mxCell id="101" value="" style="shape=waypoint;sketch=0;size=6;pointerEvents=1;points=[];fillColor=#fff2cc;resizable=0;rotatable=0;perimeter=centerPerimeter;snapToPoint=1;strokeColor=#d6b656;container=0;" vertex="1" parent="148">
                    <mxGeometry x="270" y="90" width="20" height="20" as="geometry"/>
                </mxCell>
                <mxCell id="17" value="" style="edgeStyle=none;orthogonalLoop=1;jettySize=auto;html=1;exitX=1;exitY=0.5;exitDx=0;exitDy=0;entryX=0.15;entryY=0.64;entryDx=0;entryDy=0;entryPerimeter=0;" edge="1" parent="148" source="13" target="6">
                    <mxGeometry width="100" relative="1" as="geometry">
                        <mxPoint x="70" y="-10" as="sourcePoint"/>
                        <mxPoint x="170" y="-10" as="targetPoint"/>
                        <Array as="points"/>
                    </mxGeometry>
                </mxCell>
                <mxCell id="18" value="" style="edgeStyle=none;orthogonalLoop=1;jettySize=auto;html=1;exitX=1;exitY=0.5;exitDx=0;exitDy=0;entryX=0.15;entryY=0.64;entryDx=0;entryDy=0;entryPerimeter=0;" edge="1" parent="148">
                    <mxGeometry width="100" relative="1" as="geometry">
                        <mxPoint x="80" y="59.75999999999999" as="sourcePoint"/>
                        <mxPoint x="160" y="59.75999999999999" as="targetPoint"/>
                        <Array as="points"/>
                    </mxGeometry>
                </mxCell>
                <mxCell id="19" value="" style="edgeStyle=none;orthogonalLoop=1;jettySize=auto;html=1;exitX=1;exitY=0.5;exitDx=0;exitDy=0;entryX=0.15;entryY=0.64;entryDx=0;entryDy=0;entryPerimeter=0;" edge="1" parent="148">
                    <mxGeometry width="100" relative="1" as="geometry">
                        <mxPoint x="80" y="100" as="sourcePoint"/>
                        <mxPoint x="160" y="100" as="targetPoint"/>
                        <Array as="points"/>
                    </mxGeometry>
                </mxCell>
                <mxCell id="20" value="" style="edgeStyle=none;orthogonalLoop=1;jettySize=auto;html=1;exitX=1;exitY=0.5;exitDx=0;exitDy=0;entryX=0.15;entryY=0.64;entryDx=0;entryDy=0;entryPerimeter=0;" edge="1" parent="148">
                    <mxGeometry width="100" relative="1" as="geometry">
                        <mxPoint x="80" y="139.76" as="sourcePoint"/>
                        <mxPoint x="160" y="139.76" as="targetPoint"/>
                        <Array as="points"/>
                    </mxGeometry>
                </mxCell>
                <mxCell id="96" value="" style="edgeStyle=none;orthogonalLoop=1;jettySize=auto;html=1;exitX=1;exitY=0.5;exitDx=0;exitDy=0;entryX=0.15;entryY=0.64;entryDx=0;entryDy=0;entryPerimeter=0;" edge="1" parent="148">
                    <mxGeometry width="100" relative="1" as="geometry">
                        <mxPoint x="80" y="299.64" as="sourcePoint"/>
                        <mxPoint x="160" y="299.64" as="targetPoint"/>
                        <Array as="points"/>
                    </mxGeometry>
                </mxCell>
                <mxCell id="97" value="" style="edgeStyle=none;orthogonalLoop=1;jettySize=auto;html=1;exitDx=0;exitDy=0;entryX=0.15;entryY=0.64;entryDx=0;entryDy=0;entryPerimeter=0;" edge="1" parent="148" source="145">
                    <mxGeometry width="100" relative="1" as="geometry">
                        <mxPoint x="80" y="259.88" as="sourcePoint"/>
                        <mxPoint x="160" y="259.88" as="targetPoint"/>
                        <Array as="points"/>
                    </mxGeometry>
                </mxCell>
                <mxCell id="98" value="" style="edgeStyle=none;orthogonalLoop=1;jettySize=auto;html=1;exitX=1;exitY=0.5;exitDx=0;exitDy=0;entryX=0.15;entryY=0.64;entryDx=0;entryDy=0;entryPerimeter=0;" edge="1" parent="148">
                    <mxGeometry width="100" relative="1" as="geometry">
                        <mxPoint x="80" y="219.64" as="sourcePoint"/>
                        <mxPoint x="160" y="219.64" as="targetPoint"/>
                        <Array as="points"/>
                    </mxGeometry>
                </mxCell>
                <mxCell id="99" value="" style="edgeStyle=none;orthogonalLoop=1;jettySize=auto;html=1;exitDx=0;exitDy=0;entryX=0.15;entryY=0.64;entryDx=0;entryDy=0;entryPerimeter=0;" edge="1" parent="148" source="142">
                    <mxGeometry width="100" relative="1" as="geometry">
                        <mxPoint x="80" y="179.88" as="sourcePoint"/>
                        <mxPoint x="160" y="179.88" as="targetPoint"/>
                        <Array as="points"/>
                    </mxGeometry>
                </mxCell>
                <mxCell id="6" value="" style="shape=waypoint;sketch=0;size=6;pointerEvents=1;points=[];fillColor=#fff2cc;resizable=0;rotatable=0;perimeter=centerPerimeter;snapToPoint=1;strokeColor=#d6b656;container=0;" vertex="1" parent="148">
                    <mxGeometry x="150" y="10" width="20" height="20" as="geometry"/>
                </mxCell>
                <mxCell id="7" value="" style="shape=waypoint;sketch=0;size=6;pointerEvents=1;points=[];fillColor=#fff2cc;resizable=0;rotatable=0;perimeter=centerPerimeter;snapToPoint=1;strokeColor=#d6b656;container=0;" vertex="1" parent="148">
                    <mxGeometry x="150" y="50" width="20" height="20" as="geometry"/>
                </mxCell>
                <mxCell id="8" value="" style="shape=waypoint;sketch=0;size=6;pointerEvents=1;points=[];fillColor=#fff2cc;resizable=0;rotatable=0;perimeter=centerPerimeter;snapToPoint=1;strokeColor=#d6b656;container=0;" vertex="1" parent="148">
                    <mxGeometry x="150" y="90" width="20" height="20" as="geometry"/>
                </mxCell>
                <mxCell id="9" value="" style="shape=waypoint;sketch=0;size=6;pointerEvents=1;points=[];fillColor=#fff2cc;resizable=0;rotatable=0;perimeter=centerPerimeter;snapToPoint=1;strokeColor=#d6b656;container=0;" vertex="1" parent="148">
                    <mxGeometry x="150" y="130" width="20" height="20" as="geometry"/>
                </mxCell>
                <mxCell id="143" value="" style="edgeStyle=none;orthogonalLoop=1;jettySize=auto;html=1;exitX=1;exitY=0.5;exitDx=0;exitDy=0;entryDx=0;entryDy=0;entryPerimeter=0;" edge="1" parent="148" target="142">
                    <mxGeometry width="100" relative="1" as="geometry">
                        <mxPoint x="80" y="179.88" as="sourcePoint"/>
                        <mxPoint x="160" y="179.88" as="targetPoint"/>
                        <Array as="points"/>
                    </mxGeometry>
                </mxCell>
                <mxCell id="142" value="" style="shape=waypoint;sketch=0;size=6;pointerEvents=1;points=[];fillColor=#fff2cc;resizable=0;rotatable=0;perimeter=centerPerimeter;snapToPoint=1;strokeColor=#d6b656;container=0;" vertex="1" parent="148">
                    <mxGeometry x="150" y="170" width="20" height="20" as="geometry"/>
                </mxCell>
                <mxCell id="144" value="" style="shape=waypoint;sketch=0;size=6;pointerEvents=1;points=[];fillColor=#fff2cc;resizable=0;rotatable=0;perimeter=centerPerimeter;snapToPoint=1;strokeColor=#d6b656;container=0;" vertex="1" parent="148">
                    <mxGeometry x="150" y="210" width="20" height="20" as="geometry"/>
                </mxCell>
                <mxCell id="146" value="" style="edgeStyle=none;orthogonalLoop=1;jettySize=auto;html=1;exitX=1;exitY=0.5;exitDx=0;exitDy=0;entryDx=0;entryDy=0;entryPerimeter=0;" edge="1" parent="148" target="145">
                    <mxGeometry width="100" relative="1" as="geometry">
                        <mxPoint x="80" y="259.88" as="sourcePoint"/>
                        <mxPoint x="160" y="259.88" as="targetPoint"/>
                        <Array as="points"/>
                    </mxGeometry>
                </mxCell>
                <mxCell id="145" value="" style="shape=waypoint;sketch=0;size=6;pointerEvents=1;points=[];fillColor=#fff2cc;resizable=0;rotatable=0;perimeter=centerPerimeter;snapToPoint=1;strokeColor=#d6b656;container=0;" vertex="1" parent="148">
                    <mxGeometry x="150" y="250" width="20" height="20" as="geometry"/>
                </mxCell>
                <mxCell id="147" value="" style="shape=waypoint;sketch=0;size=6;pointerEvents=1;points=[];fillColor=#fff2cc;resizable=0;rotatable=0;perimeter=centerPerimeter;snapToPoint=1;strokeColor=#d6b656;container=0;" vertex="1" parent="148">
                    <mxGeometry x="150" y="290" width="20" height="20" as="geometry"/>
                </mxCell>
                <mxCell id="150" value="" style="endArrow=none;html=1;exitX=1.05;exitY=0.116;exitDx=0;exitDy=0;exitPerimeter=0;entryX=0;entryY=0.75;entryDx=0;entryDy=0;entryPerimeter=0;" edge="1" parent="1" source="27" target="39">
                    <mxGeometry width="50" height="50" relative="1" as="geometry">
                        <mxPoint x="490" y="1080" as="sourcePoint"/>
                        <mxPoint x="540" y="1030" as="targetPoint"/>
                        <Array as="points">
                            <mxPoint x="440" y="1260"/>
                            <mxPoint x="440" y="1075"/>
                        </Array>
                    </mxGeometry>
                </mxCell>
                <mxCell id="151" value="" style="endArrow=none;html=1;exitX=0.671;exitY=0.736;exitDx=0;exitDy=0;exitPerimeter=0;entryX=0;entryY=0.25;entryDx=0;entryDy=0;entryPerimeter=0;" edge="1" parent="1" source="12" target="39">
                    <mxGeometry width="50" height="50" relative="1" as="geometry">
                        <mxPoint x="490" y="590" as="sourcePoint"/>
                        <mxPoint x="540" y="540" as="targetPoint"/>
                        <Array as="points">
                            <mxPoint x="400" y="500"/>
                            <mxPoint x="400" y="1045"/>
                        </Array>
                    </mxGeometry>
                </mxCell>
                <mxCell id="152" value="" style="endArrow=none;html=1;exitX=0.983;exitY=0.64;exitDx=0;exitDy=0;exitPerimeter=0;entryX=0;entryY=0.5;entryDx=0;entryDy=0;" edge="1" parent="1" source="12" target="56">
                    <mxGeometry width="50" height="50" relative="1" as="geometry">
                        <mxPoint x="430" y="470" as="sourcePoint"/>
                        <mxPoint x="480" y="420" as="targetPoint"/>
                        <Array as="points">
                            <mxPoint x="400" y="500"/>
                            <mxPoint x="400" y="100"/>
                        </Array>
                    </mxGeometry>
                </mxCell>
                <mxCell id="163" value="" style="group" vertex="1" connectable="0" parent="1">
                    <mxGeometry x="600" y="680" width="60" height="120" as="geometry"/>
                </mxCell>
                <mxCell id="164" value="" style="shape=trapezoid;perimeter=trapezoidPerimeter;whiteSpace=wrap;html=1;fixedSize=1;rotation=90;fillColor=#ffe6cc;strokeColor=#d79b00;" vertex="1" parent="163">
                    <mxGeometry x="-30" y="40" width="120" height="40" as="geometry"/>
                </mxCell>
                <mxCell id="165" value="" style="shape=waypoint;sketch=0;size=6;pointerEvents=1;points=[];fillColor=#ffe6cc;resizable=0;rotatable=0;perimeter=centerPerimeter;snapToPoint=1;strokeColor=#d79b00;" vertex="1" parent="163">
                    <mxGeometry y="23" width="20" height="20" as="geometry"/>
                </mxCell>
                <mxCell id="166" value="0" style="text;html=1;align=center;verticalAlign=middle;resizable=0;points=[];autosize=1;strokeColor=none;fillColor=none;" vertex="1" parent="163">
                    <mxGeometry x="15" y="18" width="30" height="30" as="geometry"/>
                </mxCell>
                <mxCell id="167" value="1" style="text;html=1;align=center;verticalAlign=middle;resizable=0;points=[];autosize=1;strokeColor=none;fillColor=none;" vertex="1" parent="163">
                    <mxGeometry x="15" y="80" width="30" height="30" as="geometry"/>
                </mxCell>
                <mxCell id="168" value="" style="shape=waypoint;sketch=0;size=6;pointerEvents=1;points=[];fillColor=#ffe6cc;resizable=0;rotatable=0;perimeter=centerPerimeter;snapToPoint=1;strokeColor=#d79b00;" vertex="1" parent="163">
                    <mxGeometry y="85" width="20" height="20" as="geometry"/>
                </mxCell>
                <mxCell id="169" value="" style="shape=waypoint;sketch=0;size=6;pointerEvents=1;points=[];fillColor=#ffe6cc;resizable=0;rotatable=0;perimeter=centerPerimeter;snapToPoint=1;strokeColor=#d79b00;" vertex="1" parent="163">
                    <mxGeometry x="40" y="50" width="20" height="20" as="geometry"/>
                </mxCell>
                <mxCell id="170" value="" style="shape=waypoint;sketch=0;size=6;pointerEvents=1;points=[];fillColor=#ffe6cc;resizable=0;rotatable=0;perimeter=centerPerimeter;snapToPoint=1;strokeColor=#d79b00;" vertex="1" parent="163">
                    <mxGeometry x="20" y="100" width="20" height="20" as="geometry"/>
                </mxCell>
                <mxCell id="171" value="&lt;font style=&quot;font-size: 16px;&quot;&gt;Y_1&lt;/font&gt;" style="whiteSpace=wrap;html=1;fillColor=#e1d5e7;strokeColor=#9673a6;" vertex="1" parent="1">
                    <mxGeometry x="800" y="720" width="80" height="40" as="geometry"/>
                </mxCell>
                <mxCell id="172" value="" style="endArrow=none;html=1;exitX=0.667;exitY=0.775;exitDx=0;exitDy=0;entryX=0;entryY=0.5;entryDx=0;entryDy=0;exitPerimeter=0;" edge="1" source="169" target="171" parent="1">
                    <mxGeometry width="50" height="50" relative="1" as="geometry">
                        <mxPoint x="660" y="493" as="sourcePoint"/>
                        <mxPoint x="810" y="493" as="targetPoint"/>
                    </mxGeometry>
                </mxCell>
                <mxCell id="173" value="" style="group" vertex="1" connectable="0" parent="1">
                    <mxGeometry x="600" y="880" width="60" height="120" as="geometry"/>
                </mxCell>
                <mxCell id="174" value="" style="shape=trapezoid;perimeter=trapezoidPerimeter;whiteSpace=wrap;html=1;fixedSize=1;rotation=90;fillColor=#ffe6cc;strokeColor=#d79b00;" vertex="1" parent="173">
                    <mxGeometry x="-30" y="40" width="120" height="40" as="geometry"/>
                </mxCell>
                <mxCell id="175" value="" style="shape=waypoint;sketch=0;size=6;pointerEvents=1;points=[];fillColor=#ffe6cc;resizable=0;rotatable=0;perimeter=centerPerimeter;snapToPoint=1;strokeColor=#d79b00;" vertex="1" parent="173">
                    <mxGeometry y="23" width="20" height="20" as="geometry"/>
                </mxCell>
                <mxCell id="176" value="0" style="text;html=1;align=center;verticalAlign=middle;resizable=0;points=[];autosize=1;strokeColor=none;fillColor=none;" vertex="1" parent="173">
                    <mxGeometry x="15" y="18" width="30" height="30" as="geometry"/>
                </mxCell>
                <mxCell id="177" value="1" style="text;html=1;align=center;verticalAlign=middle;resizable=0;points=[];autosize=1;strokeColor=none;fillColor=none;" vertex="1" parent="173">
                    <mxGeometry x="15" y="80" width="30" height="30" as="geometry"/>
                </mxCell>
                <mxCell id="178" value="" style="shape=waypoint;sketch=0;size=6;pointerEvents=1;points=[];fillColor=#ffe6cc;resizable=0;rotatable=0;perimeter=centerPerimeter;snapToPoint=1;strokeColor=#d79b00;" vertex="1" parent="173">
                    <mxGeometry y="85" width="20" height="20" as="geometry"/>
                </mxCell>
                <mxCell id="179" value="" style="shape=waypoint;sketch=0;size=6;pointerEvents=1;points=[];fillColor=#ffe6cc;resizable=0;rotatable=0;perimeter=centerPerimeter;snapToPoint=1;strokeColor=#d79b00;" vertex="1" parent="173">
                    <mxGeometry x="40" y="50" width="20" height="20" as="geometry"/>
                </mxCell>
                <mxCell id="180" value="" style="shape=waypoint;sketch=0;size=6;pointerEvents=1;points=[];fillColor=#ffe6cc;resizable=0;rotatable=0;perimeter=centerPerimeter;snapToPoint=1;strokeColor=#d79b00;" vertex="1" parent="173">
                    <mxGeometry x="20" width="20" height="20" as="geometry"/>
                </mxCell>
                <mxCell id="181" value="&lt;font style=&quot;font-size: 16px;&quot;&gt;Y_0&lt;/font&gt;" style="whiteSpace=wrap;html=1;fillColor=#e1d5e7;strokeColor=#9673a6;" vertex="1" parent="1">
                    <mxGeometry x="800" y="920" width="80" height="40" as="geometry"/>
                </mxCell>
                <mxCell id="182" value="" style="endArrow=none;html=1;exitX=0.667;exitY=0.775;exitDx=0;exitDy=0;entryX=0;entryY=0.5;entryDx=0;entryDy=0;exitPerimeter=0;" edge="1" source="179" target="181" parent="1">
                    <mxGeometry width="50" height="50" relative="1" as="geometry">
                        <mxPoint x="660" y="693" as="sourcePoint"/>
                        <mxPoint x="810" y="693" as="targetPoint"/>
                    </mxGeometry>
                </mxCell>
                <mxCell id="183" value="" style="endArrow=none;html=1;exitX=0.464;exitY=0.322;exitDx=0;exitDy=0;exitPerimeter=0;entryX=0.584;entryY=0.96;entryDx=0;entryDy=0;entryPerimeter=0;" edge="1" parent="1" source="12" target="47">
                    <mxGeometry width="50" height="50" relative="1" as="geometry">
                        <mxPoint x="600" y="520" as="sourcePoint"/>
                        <mxPoint x="650" y="470" as="targetPoint"/>
                        <Array as="points">
                            <mxPoint x="400" y="500"/>
                            <mxPoint x="400" y="440"/>
                            <mxPoint x="630" y="440"/>
                        </Array>
                    </mxGeometry>
                </mxCell>
                <mxCell id="184" value="" style="endArrow=none;html=1;exitX=1.05;exitY=0.633;exitDx=0;exitDy=0;exitPerimeter=0;entryX=0.688;entryY=0.753;entryDx=0;entryDy=0;entryPerimeter=0;" edge="1" parent="1" source="12" target="55">
                    <mxGeometry width="50" height="50" relative="1" as="geometry">
                        <mxPoint x="530" y="760" as="sourcePoint"/>
                        <mxPoint x="580" y="710" as="targetPoint"/>
                        <Array as="points">
                            <mxPoint x="400" y="500"/>
                            <mxPoint x="400" y="640"/>
                            <mxPoint x="630" y="640"/>
                        </Array>
                    </mxGeometry>
                </mxCell>
                <mxCell id="185" value="" style="endArrow=none;html=1;exitX=1.016;exitY=0.943;exitDx=0;exitDy=0;exitPerimeter=0;entryX=0.343;entryY=0.926;entryDx=0;entryDy=0;entryPerimeter=0;" edge="1" parent="1" source="12" target="170">
                    <mxGeometry width="50" height="50" relative="1" as="geometry">
                        <mxPoint x="530" y="760" as="sourcePoint"/>
                        <mxPoint x="580" y="710" as="targetPoint"/>
                        <Array as="points">
                            <mxPoint x="400" y="500"/>
                            <mxPoint x="400" y="840"/>
                            <mxPoint x="630" y="840"/>
                        </Array>
                    </mxGeometry>
                </mxCell>
                <mxCell id="186" value="" style="endArrow=none;html=1;exitX=0.395;exitY=0.805;exitDx=0;exitDy=0;exitPerimeter=0;entryX=0.653;entryY=0.271;entryDx=0;entryDy=0;entryPerimeter=0;" edge="1" parent="1" source="12" target="180">
                    <mxGeometry width="50" height="50" relative="1" as="geometry">
                        <mxPoint x="530" y="760" as="sourcePoint"/>
                        <mxPoint x="580" y="710" as="targetPoint"/>
                        <Array as="points">
                            <mxPoint x="400" y="500"/>
                            <mxPoint x="400" y="840"/>
                            <mxPoint x="630" y="840"/>
                        </Array>
                    </mxGeometry>
                </mxCell>
                <mxCell id="187" value="" style="endArrow=none;html=1;exitX=0.833;exitY=0.708;exitDx=0;exitDy=0;exitPerimeter=0;entryX=0.75;entryY=0.75;entryDx=0;entryDy=0;entryPerimeter=0;" edge="1" parent="1" source="28" target="178">
                    <mxGeometry width="50" height="50" relative="1" as="geometry">
                        <mxPoint x="440" y="790" as="sourcePoint"/>
                        <mxPoint x="490" y="740" as="targetPoint"/>
                        <Array as="points">
                            <mxPoint x="420" y="780"/>
                            <mxPoint x="420" y="975"/>
                        </Array>
                    </mxGeometry>
                </mxCell>
                <mxCell id="188" value="" style="endArrow=none;html=1;exitX=1;exitY=0.5;exitDx=0;exitDy=0;exitPerimeter=0;entryX=0.167;entryY=0.683;entryDx=0;entryDy=0;entryPerimeter=0;" edge="1" parent="1" source="101" target="175">
                    <mxGeometry width="50" height="50" relative="1" as="geometry">
                        <mxPoint x="430" y="580" as="sourcePoint"/>
                        <mxPoint x="480" y="530" as="targetPoint"/>
                        <Array as="points">
                            <mxPoint x="430" y="300"/>
                            <mxPoint x="430" y="913"/>
                        </Array>
                    </mxGeometry>
                </mxCell>
                <mxCell id="189" value="" style="endArrow=none;html=1;exitX=0.542;exitY=0.833;exitDx=0;exitDy=0;exitPerimeter=0;entryX=0.375;entryY=0.208;entryDx=0;entryDy=0;entryPerimeter=0;" edge="1" parent="1" source="26" target="168">
                    <mxGeometry width="50" height="50" relative="1" as="geometry">
                        <mxPoint x="500" y="630" as="sourcePoint"/>
                        <mxPoint x="550" y="580" as="targetPoint"/>
                        <Array as="points">
                            <mxPoint x="440" y="740"/>
                            <mxPoint x="440" y="775"/>
                        </Array>
                    </mxGeometry>
                </mxCell>
                <mxCell id="190" value="" style="endArrow=none;html=1;exitX=0.809;exitY=0.702;exitDx=0;exitDy=0;exitPerimeter=0;entryX=0.343;entryY=0.19;entryDx=0;entryDy=0;entryPerimeter=0;" edge="1" parent="1" source="11" target="165">
                    <mxGeometry width="50" height="50" relative="1" as="geometry">
                        <mxPoint x="520" y="540" as="sourcePoint"/>
                        <mxPoint x="570" y="490" as="targetPoint"/>
                        <Array as="points">
                            <mxPoint x="440" y="260"/>
                            <mxPoint x="440" y="713"/>
                        </Array>
                    </mxGeometry>
                </mxCell>
                <mxCell id="191" value="" style="endArrow=none;html=1;exitX=0.153;exitY=0.84;exitDx=0;exitDy=0;exitPerimeter=0;entryX=0.24;entryY=0.121;entryDx=0;entryDy=0;entryPerimeter=0;" edge="1" parent="1" source="10" target="50">
                    <mxGeometry width="50" height="50" relative="1" as="geometry">
                        <mxPoint x="530" y="520" as="sourcePoint"/>
                        <mxPoint x="580" y="470" as="targetPoint"/>
                        <Array as="points">
                            <mxPoint x="460" y="220"/>
                            <mxPoint x="460" y="513"/>
                        </Array>
                    </mxGeometry>
                </mxCell>
                <mxCell id="192" value="" style="endArrow=none;html=1;exitX=0.809;exitY=0.529;exitDx=0;exitDy=0;exitPerimeter=0;entryX=0.412;entryY=0.297;entryDx=0;entryDy=0;entryPerimeter=0;" edge="1" parent="1" source="25" target="53">
                    <mxGeometry width="50" height="50" relative="1" as="geometry">
                        <mxPoint x="530" y="520" as="sourcePoint"/>
                        <mxPoint x="580" y="470" as="targetPoint"/>
                        <Array as="points">
                            <mxPoint x="480" y="700"/>
                            <mxPoint x="480" y="575"/>
                        </Array>
                    </mxGeometry>
                </mxCell>
                <mxCell id="193" value="" style="endArrow=none;html=1;exitX=0.843;exitY=0.805;exitDx=0;exitDy=0;exitPerimeter=0;entryX=0.067;entryY=0.952;entryDx=0;entryDy=0;entryPerimeter=0;" edge="1" parent="1" source="24" target="45">
                    <mxGeometry width="50" height="50" relative="1" as="geometry">
                        <mxPoint x="530" y="520" as="sourcePoint"/>
                        <mxPoint x="580" y="470" as="targetPoint"/>
                        <Array as="points">
                            <mxPoint x="470" y="660"/>
                            <mxPoint x="470" y="375"/>
                        </Array>
                    </mxGeometry>
                </mxCell>
                <mxCell id="194" value="1&#39;b0" style="text;html=1;align=center;verticalAlign=middle;resizable=0;points=[];autosize=1;strokeColor=none;fillColor=none;" vertex="1" parent="1">
                    <mxGeometry x="510" y="295" width="50" height="30" as="geometry"/>
                </mxCell>
                <mxCell id="195" value="" style="endArrow=none;html=1;entryX=0.102;entryY=0.402;entryDx=0;entryDy=0;entryPerimeter=0;" edge="1" parent="1" target="42">
                    <mxGeometry width="50" height="50" relative="1" as="geometry">
                        <mxPoint x="560" y="310" as="sourcePoint"/>
                        <mxPoint x="560" y="260" as="targetPoint"/>
                    </mxGeometry>
                </mxCell>
            </root>
        </mxGraphModel>
    </diagram>
</mxfile>